<mxfile host="app.diagrams.net" modified="2024-05-12T23:34:35.425Z" agent="Mozilla/5.0 (Windows NT 10.0; Win64; x64) AppleWebKit/537.36 (KHTML, like Gecko) Chrome/124.0.0.0 Safari/537.36 Edg/124.0.0.0" etag="M4XasiRi7gOHJMugKj9Q" version="24.4.0" type="github">
  <diagram name="PÃ¡gina-1" id="jIRtGHiFkgrxesrdVulj">
    <mxGraphModel dx="730" dy="775" grid="1" gridSize="10" guides="1" tooltips="1" connect="1" arrows="1" fold="1" page="1" pageScale="1" pageWidth="827" pageHeight="1169" math="0" shadow="0">
      <root>
        <mxCell id="0" />
        <mxCell id="1" parent="0" />
        <mxCell id="dpN6cogNnL0V7rVS9stt-3" value="" style="edgeStyle=orthogonalEdgeStyle;rounded=0;orthogonalLoop=1;jettySize=auto;html=1;" edge="1" parent="1" source="dpN6cogNnL0V7rVS9stt-1" target="dpN6cogNnL0V7rVS9stt-2">
          <mxGeometry relative="1" as="geometry" />
        </mxCell>
        <mxCell id="dpN6cogNnL0V7rVS9stt-1" value="INICIO 10" style="ellipse;whiteSpace=wrap;html=1;" vertex="1" parent="1">
          <mxGeometry x="170" y="30" width="120" height="80" as="geometry" />
        </mxCell>
        <mxCell id="dpN6cogNnL0V7rVS9stt-5" value="" style="edgeStyle=orthogonalEdgeStyle;rounded=0;orthogonalLoop=1;jettySize=auto;html=1;" edge="1" parent="1" source="dpN6cogNnL0V7rVS9stt-2" target="dpN6cogNnL0V7rVS9stt-4">
          <mxGeometry relative="1" as="geometry" />
        </mxCell>
        <mxCell id="dpN6cogNnL0V7rVS9stt-2" value="int a, int b,int MCD=1" style="whiteSpace=wrap;html=1;" vertex="1" parent="1">
          <mxGeometry x="170" y="150" width="120" height="60" as="geometry" />
        </mxCell>
        <mxCell id="dpN6cogNnL0V7rVS9stt-7" value="" style="edgeStyle=orthogonalEdgeStyle;rounded=0;orthogonalLoop=1;jettySize=auto;html=1;" edge="1" parent="1" source="dpN6cogNnL0V7rVS9stt-4" target="dpN6cogNnL0V7rVS9stt-6">
          <mxGeometry relative="1" as="geometry" />
        </mxCell>
        <mxCell id="dpN6cogNnL0V7rVS9stt-9" value="" style="edgeStyle=orthogonalEdgeStyle;rounded=0;orthogonalLoop=1;jettySize=auto;html=1;" edge="1" parent="1" source="dpN6cogNnL0V7rVS9stt-4" target="dpN6cogNnL0V7rVS9stt-8">
          <mxGeometry relative="1" as="geometry" />
        </mxCell>
        <mxCell id="dpN6cogNnL0V7rVS9stt-4" value="a==0" style="rhombus;whiteSpace=wrap;html=1;" vertex="1" parent="1">
          <mxGeometry x="190" y="270" width="80" height="80" as="geometry" />
        </mxCell>
        <mxCell id="dpN6cogNnL0V7rVS9stt-28" style="edgeStyle=orthogonalEdgeStyle;rounded=0;orthogonalLoop=1;jettySize=auto;html=1;entryX=0;entryY=0.5;entryDx=0;entryDy=0;" edge="1" parent="1" source="dpN6cogNnL0V7rVS9stt-6" target="dpN6cogNnL0V7rVS9stt-26">
          <mxGeometry relative="1" as="geometry" />
        </mxCell>
        <mxCell id="dpN6cogNnL0V7rVS9stt-6" value="MCD=b" style="whiteSpace=wrap;html=1;" vertex="1" parent="1">
          <mxGeometry x="310" y="280" width="120" height="60" as="geometry" />
        </mxCell>
        <mxCell id="dpN6cogNnL0V7rVS9stt-11" value="" style="edgeStyle=orthogonalEdgeStyle;rounded=0;orthogonalLoop=1;jettySize=auto;html=1;" edge="1" parent="1" source="dpN6cogNnL0V7rVS9stt-8" target="dpN6cogNnL0V7rVS9stt-10">
          <mxGeometry relative="1" as="geometry" />
        </mxCell>
        <mxCell id="dpN6cogNnL0V7rVS9stt-13" value="" style="edgeStyle=orthogonalEdgeStyle;rounded=0;orthogonalLoop=1;jettySize=auto;html=1;" edge="1" parent="1" source="dpN6cogNnL0V7rVS9stt-8" target="dpN6cogNnL0V7rVS9stt-12">
          <mxGeometry relative="1" as="geometry" />
        </mxCell>
        <mxCell id="dpN6cogNnL0V7rVS9stt-8" value="b==0" style="rhombus;whiteSpace=wrap;html=1;" vertex="1" parent="1">
          <mxGeometry x="190" y="380" width="80" height="80" as="geometry" />
        </mxCell>
        <mxCell id="dpN6cogNnL0V7rVS9stt-29" style="edgeStyle=orthogonalEdgeStyle;rounded=0;orthogonalLoop=1;jettySize=auto;html=1;entryX=0.5;entryY=1;entryDx=0;entryDy=0;" edge="1" parent="1" source="dpN6cogNnL0V7rVS9stt-10" target="dpN6cogNnL0V7rVS9stt-26">
          <mxGeometry relative="1" as="geometry" />
        </mxCell>
        <mxCell id="dpN6cogNnL0V7rVS9stt-10" value="MCD=a" style="whiteSpace=wrap;html=1;" vertex="1" parent="1">
          <mxGeometry x="310" y="390" width="120" height="60" as="geometry" />
        </mxCell>
        <mxCell id="dpN6cogNnL0V7rVS9stt-15" value="" style="edgeStyle=orthogonalEdgeStyle;rounded=0;orthogonalLoop=1;jettySize=auto;html=1;" edge="1" parent="1" source="dpN6cogNnL0V7rVS9stt-12" target="dpN6cogNnL0V7rVS9stt-14">
          <mxGeometry relative="1" as="geometry" />
        </mxCell>
        <mxCell id="dpN6cogNnL0V7rVS9stt-23" value="" style="edgeStyle=orthogonalEdgeStyle;rounded=0;orthogonalLoop=1;jettySize=auto;html=1;" edge="1" parent="1" source="dpN6cogNnL0V7rVS9stt-12" target="dpN6cogNnL0V7rVS9stt-22">
          <mxGeometry relative="1" as="geometry" />
        </mxCell>
        <mxCell id="dpN6cogNnL0V7rVS9stt-12" value="int i=2, i&amp;lt;=a &amp;amp;&amp;amp; i&amp;lt;=b" style="rhombus;whiteSpace=wrap;html=1;" vertex="1" parent="1">
          <mxGeometry x="140" y="530" width="180" height="80" as="geometry" />
        </mxCell>
        <mxCell id="dpN6cogNnL0V7rVS9stt-17" value="" style="edgeStyle=orthogonalEdgeStyle;rounded=0;orthogonalLoop=1;jettySize=auto;html=1;" edge="1" parent="1" source="dpN6cogNnL0V7rVS9stt-14" target="dpN6cogNnL0V7rVS9stt-16">
          <mxGeometry relative="1" as="geometry" />
        </mxCell>
        <mxCell id="dpN6cogNnL0V7rVS9stt-20" style="edgeStyle=orthogonalEdgeStyle;rounded=0;orthogonalLoop=1;jettySize=auto;html=1;" edge="1" parent="1" source="dpN6cogNnL0V7rVS9stt-14" target="dpN6cogNnL0V7rVS9stt-18">
          <mxGeometry relative="1" as="geometry">
            <mxPoint x="430" y="500" as="targetPoint" />
            <Array as="points">
              <mxPoint x="430" y="515" />
            </Array>
          </mxGeometry>
        </mxCell>
        <mxCell id="dpN6cogNnL0V7rVS9stt-14" value="a%i==0 &amp;amp;&amp;amp; b%i ==0" style="rhombus;whiteSpace=wrap;html=1;" vertex="1" parent="1">
          <mxGeometry x="360" y="530" width="140" height="80" as="geometry" />
        </mxCell>
        <mxCell id="dpN6cogNnL0V7rVS9stt-19" style="edgeStyle=orthogonalEdgeStyle;rounded=0;orthogonalLoop=1;jettySize=auto;html=1;entryX=1;entryY=0.5;entryDx=0;entryDy=0;" edge="1" parent="1" source="dpN6cogNnL0V7rVS9stt-16" target="dpN6cogNnL0V7rVS9stt-18">
          <mxGeometry relative="1" as="geometry">
            <Array as="points">
              <mxPoint x="575" y="515" />
            </Array>
          </mxGeometry>
        </mxCell>
        <mxCell id="dpN6cogNnL0V7rVS9stt-16" value="MCD=i" style="whiteSpace=wrap;html=1;" vertex="1" parent="1">
          <mxGeometry x="540" y="540" width="70" height="60" as="geometry" />
        </mxCell>
        <mxCell id="dpN6cogNnL0V7rVS9stt-21" style="edgeStyle=orthogonalEdgeStyle;rounded=0;orthogonalLoop=1;jettySize=auto;html=1;entryX=0.5;entryY=0;entryDx=0;entryDy=0;" edge="1" parent="1" source="dpN6cogNnL0V7rVS9stt-18" target="dpN6cogNnL0V7rVS9stt-12">
          <mxGeometry relative="1" as="geometry">
            <Array as="points">
              <mxPoint x="230" y="510" />
            </Array>
          </mxGeometry>
        </mxCell>
        <mxCell id="dpN6cogNnL0V7rVS9stt-18" value="I++" style="rounded=0;whiteSpace=wrap;html=1;" vertex="1" parent="1">
          <mxGeometry x="280" y="500" width="60" height="30" as="geometry" />
        </mxCell>
        <mxCell id="dpN6cogNnL0V7rVS9stt-25" style="edgeStyle=orthogonalEdgeStyle;rounded=0;orthogonalLoop=1;jettySize=auto;html=1;" edge="1" parent="1" source="dpN6cogNnL0V7rVS9stt-22" target="dpN6cogNnL0V7rVS9stt-24">
          <mxGeometry relative="1" as="geometry" />
        </mxCell>
        <mxCell id="dpN6cogNnL0V7rVS9stt-22" value="devuelve&lt;div&gt;MCD&lt;/div&gt;" style="whiteSpace=wrap;html=1;" vertex="1" parent="1">
          <mxGeometry x="170" y="640" width="120" height="60" as="geometry" />
        </mxCell>
        <mxCell id="dpN6cogNnL0V7rVS9stt-24" value="FIN" style="ellipse;whiteSpace=wrap;html=1;" vertex="1" parent="1">
          <mxGeometry x="354" y="710" width="120" height="80" as="geometry" />
        </mxCell>
        <mxCell id="dpN6cogNnL0V7rVS9stt-26" value="FIN" style="ellipse;whiteSpace=wrap;html=1;" vertex="1" parent="1">
          <mxGeometry x="560" y="290" width="120" height="80" as="geometry" />
        </mxCell>
        <mxCell id="dpN6cogNnL0V7rVS9stt-30" value="si" style="text;html=1;align=center;verticalAlign=middle;whiteSpace=wrap;rounded=0;" vertex="1" parent="1">
          <mxGeometry x="250" y="280" width="60" height="30" as="geometry" />
        </mxCell>
        <mxCell id="dpN6cogNnL0V7rVS9stt-31" value="si" style="text;html=1;align=center;verticalAlign=middle;whiteSpace=wrap;rounded=0;" vertex="1" parent="1">
          <mxGeometry x="250" y="390" width="60" height="30" as="geometry" />
        </mxCell>
        <mxCell id="dpN6cogNnL0V7rVS9stt-34" value="si" style="text;html=1;align=center;verticalAlign=middle;whiteSpace=wrap;rounded=0;" vertex="1" parent="1">
          <mxGeometry x="310" y="540" width="60" height="30" as="geometry" />
        </mxCell>
        <mxCell id="dpN6cogNnL0V7rVS9stt-35" value="no" style="text;html=1;align=center;verticalAlign=middle;whiteSpace=wrap;rounded=0;" vertex="1" parent="1">
          <mxGeometry x="230" y="350" width="60" height="30" as="geometry" />
        </mxCell>
        <mxCell id="dpN6cogNnL0V7rVS9stt-36" value="no" style="text;html=1;align=center;verticalAlign=middle;whiteSpace=wrap;rounded=0;" vertex="1" parent="1">
          <mxGeometry x="220" y="460" width="60" height="30" as="geometry" />
        </mxCell>
        <mxCell id="dpN6cogNnL0V7rVS9stt-37" value="no" style="text;html=1;align=center;verticalAlign=middle;whiteSpace=wrap;rounded=0;" vertex="1" parent="1">
          <mxGeometry x="220" y="610" width="60" height="30" as="geometry" />
        </mxCell>
      </root>
    </mxGraphModel>
  </diagram>
</mxfile>
